<?xml version="1.0" encoding="UTF-8"?>
<svg xmlns="http://www.w3.org/2000/svg" xmlns:xlink="http://www.w3.org/1999/xlink" width="40px" height="40px" viewBox="0 0 40 40" version="1.1">
<g id="surface1">
<path style=" stroke:none;fill-rule:nonzero;fill:rgb(100%,82.352941%,11.372549%);fill-opacity:1;" d="M 34.769531 4.859375 L 24.574219 2.164062 C 23.765625 3.871094 22.023438 5.058594 20 5.058594 C 17.976562 5.058594 16.234375 3.871094 15.425781 2.164062 L 5.230469 4.859375 L 0.816406 33.945312 L 5.230469 35.304688 L 9.199219 17.023438 L 9.199219 37.835938 L 30.800781 37.835938 L 30.800781 17.023438 L 34.769531 35.304688 L 39.183594 33.945312 Z M 34.769531 4.859375 "/>
<path style=" stroke:none;fill-rule:nonzero;fill:rgb(2.745098%,27.843137%,38.039216%);fill-opacity:1;" d="M 24.574219 2.164062 C 23.765625 3.871094 22.023438 5.058594 20 5.058594 C 17.976562 5.058594 16.234375 3.871094 15.425781 2.164062 L 11.679688 3.15625 C 12.953125 6.507812 16.195312 8.898438 20 8.898438 C 23.804688 8.898438 27.046875 6.507812 28.320312 3.15625 Z M 24.574219 2.164062 "/>
<path style=" stroke:none;fill-rule:nonzero;fill:rgb(11.764706%,71.372549%,8.235294%);fill-opacity:1;" d="M 30.839844 23.011719 L 28.675781 25.175781 L 26.519531 23.011719 L 24.355469 25.175781 L 22.195312 23.011719 L 20.039062 25.175781 L 17.875 23.011719 L 15.71875 25.175781 L 13.554688 23.011719 L 11.398438 25.175781 L 9.234375 23.011719 L 9.234375 17.835938 L 11.398438 20 L 13.554688 17.835938 L 15.71875 20 L 17.875 17.835938 L 20.039062 20 L 22.195312 17.835938 L 24.355469 20 L 26.519531 17.835938 L 28.675781 20 L 30.839844 17.835938 Z M 30.839844 23.011719 "/>
<path style=" stroke:none;fill-rule:nonzero;fill:rgb(0%,0%,0%);fill-opacity:1;" d="M 23.304688 32.414062 L 22.9375 32.414062 C 22.492188 32.414062 22.125 32.777344 22.125 33.226562 C 22.125 33.675781 22.492188 34.042969 22.9375 34.042969 L 23.304688 34.042969 C 23.753906 34.042969 24.121094 33.675781 24.121094 33.226562 C 24.121094 32.777344 23.753906 32.414062 23.304688 32.414062 Z M 23.304688 32.414062 "/>
<path style=" stroke:none;fill-rule:nonzero;fill:rgb(0%,0%,0%);fill-opacity:1;" d="M 20.296875 32.414062 L 12.367188 32.414062 C 11.917969 32.414062 11.554688 32.777344 11.554688 33.226562 C 11.554688 33.675781 11.917969 34.042969 12.367188 34.042969 L 20.296875 34.042969 C 20.746094 34.042969 21.113281 33.675781 21.113281 33.226562 C 21.113281 32.777344 20.746094 32.414062 20.296875 32.414062 Z M 20.296875 32.414062 "/>
<path style=" stroke:none;fill-rule:nonzero;fill:rgb(0%,0%,0%);fill-opacity:1;" d="M 39.992188 33.824219 L 35.582031 4.734375 C 35.53125 4.414062 35.292969 4.148438 34.980469 4.066406 L 24.785156 1.371094 C 24.40625 1.273438 24.003906 1.460938 23.835938 1.8125 C 23.140625 3.285156 21.632812 4.242188 20 4.242188 C 18.367188 4.242188 16.867188 3.285156 16.164062 1.8125 C 15.996094 1.460938 15.59375 1.273438 15.214844 1.371094 L 5.019531 4.066406 C 4.707031 4.148438 4.46875 4.414062 4.417969 4.734375 L 0.0117188 33.824219 C -0.0546875 34.222656 0.191406 34.609375 0.578125 34.726562 L 4.992188 36.085938 C 5.203125 36.152344 5.445312 36.125 5.640625 36.007812 C 5.835938 35.894531 5.976562 35.699219 6.023438 35.476562 L 8.378906 24.628906 L 8.378906 37.835938 C 8.378906 38.285156 8.746094 38.652344 9.199219 38.652344 L 30.800781 38.652344 C 31.253906 38.652344 31.621094 38.285156 31.621094 37.835938 L 31.621094 24.628906 L 33.976562 35.476562 C 34.023438 35.699219 34.164062 35.894531 34.359375 36.007812 C 34.554688 36.125 34.796875 36.152344 35.007812 36.085938 L 39.421875 34.726562 C 39.808594 34.609375 40.054688 34.222656 39.992188 33.824219 Z M 20 5.875 C 22.027344 5.875 23.914062 4.808594 24.980469 3.117188 L 27.1875 3.695312 C 25.8125 6.351562 23.03125 8.078125 20 8.078125 C 16.96875 8.078125 14.1875 6.351562 12.8125 3.695312 L 15.019531 3.117188 C 16.085938 4.808594 17.972656 5.875 20 5.875 Z M 29.984375 22.714844 L 28.675781 24.019531 L 27.09375 22.4375 C 26.777344 22.117188 26.257812 22.117188 25.941406 22.4375 L 24.355469 24.019531 L 22.773438 22.4375 C 22.457031 22.117188 21.9375 22.117188 21.621094 22.4375 L 20.039062 24.019531 L 18.453125 22.4375 C 18.132812 22.117188 17.617188 22.117188 17.300781 22.4375 L 15.71875 24.019531 L 14.132812 22.4375 C 13.8125 22.117188 13.296875 22.117188 12.976562 22.4375 L 11.398438 24.019531 L 10.015625 22.636719 L 10.015625 19.769531 L 10.816406 20.578125 C 11.136719 20.894531 11.65625 20.894531 11.972656 20.578125 L 13.554688 18.992188 L 15.136719 20.578125 C 15.460938 20.894531 15.972656 20.894531 16.292969 20.578125 L 17.875 18.992188 L 19.457031 20.578125 C 19.78125 20.894531 20.292969 20.894531 20.617188 20.578125 L 22.195312 18.992188 L 23.78125 20.578125 C 24.097656 20.894531 24.613281 20.894531 24.9375 20.578125 L 26.519531 18.992188 L 28.101562 20.578125 C 28.261719 20.734375 28.472656 20.816406 28.675781 20.816406 C 28.886719 20.816406 29.097656 20.734375 29.257812 20.578125 L 29.984375 19.84375 Z M 10.015625 37.023438 L 10.015625 24.945312 L 10.820312 25.75 C 11.136719 26.070312 11.65625 26.070312 11.972656 25.75 L 13.554688 24.171875 L 15.136719 25.75 C 15.460938 26.070312 15.976562 26.070312 16.292969 25.75 L 17.875 24.171875 L 19.457031 25.75 C 19.617188 25.914062 19.828125 25.992188 20.039062 25.992188 C 20.242188 25.992188 20.453125 25.914062 20.617188 25.75 L 22.195312 24.171875 L 23.78125 25.75 C 24.101562 26.070312 24.613281 26.070312 24.9375 25.75 L 26.519531 24.171875 L 28.101562 25.75 C 28.417969 26.070312 28.9375 26.070312 29.257812 25.75 L 29.984375 25.019531 L 29.984375 37.023438 Z M 35.382812 34.261719 L 31.601562 16.84375 C 31.515625 16.441406 31.132812 16.167969 30.71875 16.210938 C 30.304688 16.253906 29.984375 16.601562 29.984375 17.023438 L 29.984375 17.535156 L 28.675781 18.84375 L 27.09375 17.261719 C 26.777344 16.945312 26.257812 16.945312 25.941406 17.261719 L 24.355469 18.84375 L 22.773438 17.261719 C 22.457031 16.945312 21.9375 16.945312 21.621094 17.261719 L 20.039062 18.84375 L 18.453125 17.261719 C 18.132812 16.945312 17.617188 16.945312 17.300781 17.261719 L 15.71875 18.84375 L 14.132812 17.261719 C 13.8125 16.945312 13.296875 16.945312 12.976562 17.261719 L 11.398438 18.84375 L 10.015625 17.460938 L 10.015625 17.023438 C 10.015625 16.601562 9.695312 16.253906 9.28125 16.210938 C 8.871094 16.164062 8.484375 16.441406 8.398438 16.84375 L 4.617188 34.261719 L 1.726562 33.375 L 5.957031 5.507812 L 11.207031 4.121094 C 11.921875 5.65625 13.023438 6.96875 14.421875 7.949219 C 16.058594 9.101562 17.988281 9.710938 20 9.710938 C 22.011719 9.710938 23.941406 9.101562 25.578125 7.949219 C 26.976562 6.96875 28.078125 5.65625 28.792969 4.121094 L 34.046875 5.507812 L 38.273438 33.375 Z M 35.382812 34.261719 "/>
</g>
</svg>
